<svg width="914" height="400" fill="none" xmlns="http://www.w3.org/2000/svg">
  <path fill="#fff" d="M0 0h914v400H0z"/>
  <path d="M257 208.109c0 9.685 7.016 13.1 12.541 13.1 6.83 0 12.542-2.856 12.542-11.486 0-7.016-3.849-9.934-11.61-12.541-2.732-.932-10.679-2.111-10.865-10.245 0-6.643 5.153-9.064 10.306-9.064 5.029 0 10.555 3.29 10.555 11.982h1.241c0-9.499-6.208-13.162-11.796-13.162-5.588 0-11.486 2.67-11.486 10.244 0 8.32 7.575 9.872 11.983 11.362 5.525 1.863 10.43 4.408 10.43 11.424 0 7.575-4.967 10.369-11.3 10.369-4.966 0-11.361-2.856-11.361-11.983H257zm211.579-30.857v41.039l-19.992-41.039h-1.18v43.46h1.18v-40.977l19.992 40.977h1.18v-43.46h-1.18zm165.759 0v43.46h1.18v-20.799h10.244l9.872 20.799H657l-9.872-20.985c4.967-.807 9.624-3.849 9.624-10.492v-1.304c0-8.009-6.519-10.679-12.418-10.679h-9.996zm21.172 11.672c0 7.823-5.774 9.872-11.176 9.872h-8.816v-20.364h8.816c5.402 0 11.176 1.862 11.176 9.809v.683zm-90.69 31.788h1.242l-12.852-43.46h-1.242l-12.789 43.46h1.179l4.595-15.583 7.636-25.89 7.637 25.89 4.594 15.583z" fill="#57DBE2"/>
  <circle cx="365.108" cy="199.603" r="21.851" stroke="#57DBE2"/>
  <circle cx="365.109" cy="199.603" r="28.06" stroke="#57DBE2" stroke-opacity=".75"/>
  <circle cx="365.108" cy="199.603" r="34.269" stroke="#57DBE2" stroke-opacity=".5"/>
  <circle cx="365.108" cy="199.603" r="40.477" stroke="#57DBE2" stroke-opacity=".3"/>
  <circle cx="365.109" cy="199.603" r="46.686" stroke="#57DBE2" stroke-opacity=".2"/>
  <circle cx="365.108" cy="199.603" r="52.895" stroke="#57DBE2" stroke-opacity=".1"/>
  <circle cx="365.108" cy="199.603" r="59.103" stroke="#57DBE2" stroke-opacity=".05"/>
</svg>
